<svg xmlns="http://www.w3.org/2000/svg" viewBox="0 0 900 520" role="img" aria-label="Puente solidario entre Chile y Venezuela">
  <defs>
    <linearGradient id="sky" x1="0" x2="1" y1="0" y2="1">
      <stop offset="0" stop-color="#F8FBFF"/>
      <stop offset="1" stop-color="#DCEAFF"/>
    </linearGradient>
    <linearGradient id="water" x1="0" x2="1">
      <stop offset="0" stop-color="#D7E8FB"/>
      <stop offset="1" stop-color="#BFD7F2"/>
    </linearGradient>
    <filter id="soft" x="-20%" y="-20%" width="140%" height="140%">
      <feDropShadow dx="0" dy="16" stdDeviation="18" flood-color="#082255" flood-opacity=".12"/>
    </filter>
  </defs>
  <rect width="900" height="520" fill="url(#sky)"/>
  <g opacity=".62" fill="#CFE1F7">
    <path d="M95 250c34-24 74-24 111 0 38 25 78 25 119 0 31-19 67-19 103 0v54H95z"/>
    <path d="M610 232c34-24 74-24 111 0 38 25 78 25 119 0 31-19 67-19 103 0v60H610z"/>
    <path d="M232 148c16-39 83-42 107-4 21-18 55-13 69 12H232z"/>
    <path d="M650 112c19-47 100-50 130-5 25-21 65-15 82 14H650z"/>
  </g>
  <path d="M80 348c120-38 240-43 360-16s247 30 380-18v150H80z" fill="url(#water)" opacity=".72"/>
  <g filter="url(#soft)">
    <path d="M271 302c103-111 243-111 356 0" fill="none" stroke="#9BB9F0" stroke-width="12" stroke-linecap="round"/>
    <path d="M305 302c89-72 197-72 288 0" fill="none" stroke="#FFFFFF" stroke-width="10" stroke-linecap="round"/>
    <path d="M300 302h300" stroke="#A9BEDB" stroke-width="12" stroke-linecap="round"/>
    <path d="M330 302v-42M385 302v-70M450 302v-82M515 302v-70M570 302v-42" stroke="#7D99C2" stroke-width="7" stroke-linecap="round"/>
  </g>
  <g transform="translate(170 168)">
    <path d="M0 170V0" stroke="#082255" stroke-width="7" stroke-linecap="round"/>
    <path d="M6 12c39-20 70 22 111 2v76c-41 20-72-22-111-2z" fill="#fff"/>
    <path d="M6 12h44v44H6z" fill="#075FEA"/>
    <path d="M50 12h67v22H50z" fill="#fff"/>
    <path d="M50 34h67v22H50zM6 56h111v32H6z" fill="#E8342F"/>
    <path d="M28 23l5 11 12 1-9 8 3 12-11-6-10 6 2-12-9-8 12-1z" fill="#fff"/>
  </g>
  <g transform="translate(660 160)">
    <path d="M0 178V0" stroke="#082255" stroke-width="7" stroke-linecap="round"/>
    <path d="M6 14c42-20 77 24 120 3v82c-43 21-78-23-120-3z" fill="#F9C11E"/>
    <path d="M6 42c42-20 77 24 120 3v27c-43 21-78-23-120-3z" fill="#075FEA"/>
    <path d="M6 70c42-20 77 24 120 3v27c-43 21-78-23-120-3z" fill="#E8342F"/>
    <g fill="#fff" opacity=".9">
      <circle cx="48" cy="55" r="3"/><circle cx="62" cy="60" r="3"/><circle cx="76" cy="61" r="3"/>
      <circle cx="90" cy="57" r="3"/><circle cx="103" cy="51" r="3"/>
    </g>
  </g>
  <g fill="#0D9B73">
    <circle cx="220" cy="357" r="24"/><circle cx="704" cy="348" r="24"/>
    <path d="M209 358h22v18h-22zM206 356l14-12 14 12" fill="none" stroke="#fff" stroke-width="5" stroke-linecap="round" stroke-linejoin="round"/>
    <path d="M693 349h22v18h-22zM690 347l14-12 14 12" fill="none" stroke="#fff" stroke-width="5" stroke-linecap="round" stroke-linejoin="round"/>
  </g>
</svg>
